<svg xmlns="http://www.w3.org/2000/svg" width="186" height="45" viewBox="0 0 186 45" fill="none">
            <path d="M15.8087 22.0943C15.8087 19.0548 13.4675 16.9186 10.5917 16.9186C7.71588 16.9186 5.37468 19.0908 5.37468 22.0943C5.37468 25.0618 7.71588 27.2701 10.5917 27.2701C13.4704 27.2673 15.8087 25.1338 15.8087 22.0943ZM15.8498 31.1409V28.7885C14.431 30.4177 12.3189 31.429 9.78977 31.429C4.53455 31.429 0.54541 27.4474 0.54541 22.0943C0.54541 16.7745 4.6873 12.7236 9.90726 12.7236C12.3631 12.7236 14.434 13.7377 15.8527 15.3281V13.0478H20.5704V31.1409H15.8498Z" fill="#1B2559"/>
            <path d="M43.4857 27.1233C41.8349 27.1233 41.3766 26.5441 41.3766 25.0258V16.9933H44.4081V13.0478H41.3766V8.63399H36.5415V13.0478H30.3139V11.9478C30.3139 10.4267 30.9279 9.84757 32.617 9.84757H33.6775V6.33703H31.3509C27.3617 6.33703 25.4817 7.56724 25.4817 11.3299V13.045H22.7969V16.9906H25.4817V31.138H30.3169V16.9906H36.5444V25.857C36.5444 29.5476 38.0396 31.1409 41.9524 31.1409H44.4463V27.1233H43.4857Z" fill="#1B2559"/>
            <path d="M60.8261 20.4651C60.4824 18.1126 58.4467 16.7023 56.0702 16.7023C53.6908 16.7023 51.7345 18.0766 51.238 20.4651H60.8261ZM51.1969 23.2885C51.5436 25.965 53.5763 27.4862 56.1467 27.4862C58.1794 27.4862 59.754 26.5801 60.6733 25.1337H65.623C64.4715 28.9685 60.8261 31.4289 56.0321 31.4289C50.2393 31.4289 46.1738 27.5942 46.1738 22.1302C46.1738 16.6663 50.4714 12.7208 56.1496 12.7208C61.866 12.7208 66.0079 16.7024 66.0079 22.1302C66.0079 22.5293 65.9697 22.9255 65.8933 23.2885H51.1969Z" fill="#1B2559"/>
            <path d="M96.7489 22.0943C96.7489 19.1628 94.4077 16.9186 91.5319 16.9186C88.6561 16.9186 86.3148 19.0908 86.3148 22.0943C86.3148 25.0618 88.6561 27.2701 91.5319 27.2701C94.4077 27.2673 96.7489 25.0258 96.7489 22.0943ZM81.5561 13.0478H86.2737V15.4002C87.6925 13.735 89.8017 12.7236 92.3338 12.7236C97.5126 12.7236 101.578 16.7412 101.578 22.0583C101.578 27.3781 97.4362 31.4317 92.2193 31.4317C89.8017 31.4317 87.8071 30.5257 86.4265 29.0074V38.5859H81.5561V13.0478Z" fill="#1B2559"/>
            <path d="M118.583 22.0943C118.583 19.0548 116.245 16.9186 113.366 16.9186C110.49 16.9186 108.149 19.0908 108.149 22.0943C108.149 25.0618 110.49 27.2701 113.366 27.2701C116.245 27.2673 118.583 25.1338 118.583 22.0943ZM118.625 31.1409V28.7885C117.206 30.4177 115.093 31.429 112.564 31.429C107.309 31.429 103.32 27.4474 103.32 22.0943C103.32 16.7745 107.462 12.7236 112.679 12.7236C115.135 12.7236 117.206 13.7377 118.625 15.3281V13.0478H123.343V31.1409H118.625Z" fill="#1B2559"/>
            <path d="M73.0519 14.8211C73.0519 14.8211 74.2534 12.7236 77.1938 12.7236C78.4511 12.7236 79.2648 13.1309 79.2648 13.1309V17.747C79.2648 17.747 77.4905 16.7135 75.8602 16.9213C74.2299 17.1291 73.1988 18.5422 73.2047 20.4319V31.1436H68.3343V13.0506H73.0519V14.8211Z" fill="#1B2559"/>
            <path d="M145.376 13.0478L133.464 38.5276H128.442L133.118 28.6776L125.211 13.0478H130.904L135.53 23.4908L140.277 13.0478H145.376Z" fill="#1B2559"/>
            <path d="M183.4 12.6377L171.591 6.20956C168.125 4.32268 163.792 6.6806 163.792 10.4571V11.1166C163.792 11.7123 164.129 12.2637 164.676 12.5601L166.906 13.7737C167.56 14.1312 168.377 13.6851 168.377 12.973V11.3327C168.377 10.5125 169.318 9.99996 170.07 10.41L180.298 15.9792C181.051 16.3893 181.051 17.4145 180.298 17.8219L170.07 23.3911C169.318 23.8011 168.377 23.2885 168.377 22.4684V21.5955C168.377 17.819 164.045 15.4584 160.576 17.348L148.767 23.7761C145.3 25.6631 145.3 30.3844 148.767 32.2713L160.576 38.6995C164.041 40.5863 168.377 38.2284 168.377 34.4519V33.7924C168.377 33.1967 168.04 32.6481 167.493 32.3488L165.263 31.1325C164.609 30.7751 163.792 31.2212 163.792 31.9333V33.5736C163.792 34.3937 162.853 34.9063 162.1 34.4962L151.872 28.927C151.12 28.5169 151.12 27.4918 151.872 27.0817L162.1 21.5124C162.853 21.1023 163.792 21.6149 163.792 22.4351V23.3079C163.792 27.0844 168.125 29.4452 171.591 27.5555L183.4 21.1273C186.867 19.2459 186.867 14.5246 183.4 12.6377Z" fill="#1B2559"/>
          </svg>