<svg xmlns="http://www.w3.org/2000/svg" width="184" height="49" viewBox="0 0 184 49" fill="none" class="">
            <path d="M54.5276 15.4252H62.1957C66.4433 15.4252 68.6485 17.1778 68.6485 20.4687V20.6326C68.709 21.597 68.4236 22.5512 67.8442 23.3217C67.2647 24.0922 66.4297 24.6279 65.491 24.8313C66.6152 24.9309 67.6549 25.4727 68.3845 26.3391C69.1141 27.2055 69.4746 28.3265 69.3878 29.4587V29.5722C69.3878 33.1657 67.0447 35.057 62.5466 35.057H54.5276V15.4252ZM61.4815 23.4822C63.6116 23.4822 64.4511 22.7131 64.4511 20.9605V20.847C64.4511 19.2078 63.5239 18.4639 61.4565 18.4639H58.8378V23.5074L61.4815 23.4822ZM61.8574 31.9679C64.0376 31.9679 65.0274 30.9718 65.0274 29.194V29.0805C65.0274 27.2648 64.0376 26.3444 61.6444 26.3444H58.8378V31.9805L61.8574 31.9679Z" fill="#1B2559"/>
            <path d="M70.5407 31.0601C70.5407 27.7062 73.5854 26.4453 77.9583 26.4453H79.5621V25.8779C79.5621 24.1757 79.0483 23.2427 77.2441 23.2427C76.952 23.2078 76.6559 23.2334 76.3741 23.318C76.0923 23.4026 75.8306 23.5443 75.6052 23.7345C75.3799 23.9246 75.1956 24.1592 75.0637 24.4237C74.9318 24.6883 74.8551 24.9772 74.8384 25.2727H71.0795C71.3301 21.8683 73.9989 20.3553 77.4947 20.3553C80.9904 20.3553 83.4588 21.7801 83.4588 25.6762V35.0318H79.6122V33.3044C79.1294 33.9889 78.4786 34.5357 77.7231 34.8915C76.9677 35.2473 76.1335 35.3999 75.302 35.3344C72.7208 35.3344 70.5407 34.0736 70.5407 31.0601ZM79.5621 30.0135V28.7527H78.0334C75.7405 28.7527 74.4124 29.257 74.4124 30.7827C74.4124 31.8292 75.0388 32.5227 76.4798 32.5227C78.2214 32.5731 79.5621 31.6022 79.5621 30.0135Z" fill="#1B2559" class=""/>
            <path d="M85.125 30.5305H88.8087C88.9716 31.7914 89.5981 32.5731 91.3147 32.5731C92.8433 32.5731 93.5575 31.9931 93.5575 30.997C93.5575 30.0009 92.7054 29.5975 90.6631 29.3075C86.9042 28.7275 85.4006 27.6305 85.4006 24.8314C85.4006 22.0322 88.1321 20.3553 91.039 20.3553C94.209 20.3553 96.5771 21.5153 96.9279 24.8061H93.3069C93.0939 23.6209 92.4298 23.0788 91.0766 23.0788C89.7234 23.0788 89.0593 23.684 89.0593 24.554C89.0593 25.424 89.7359 25.8148 91.8033 26.1175C95.3743 26.6344 97.3414 27.5422 97.3414 30.6188C97.3414 33.6953 95.1111 35.3344 91.3397 35.3344C87.5683 35.3344 85.2628 33.6322 85.125 30.5305Z" fill="#1B2559"/>
            <path d="M98.3564 28.0339V27.8196C98.3089 26.8342 98.4653 25.8496 98.8156 24.9283C99.166 24.0069 99.7028 23.1688 100.392 22.4671C101.081 21.7653 101.907 21.2153 102.819 20.8518C103.73 20.4882 104.707 20.3192 105.686 20.3552C109.37 20.3552 112.64 22.5239 112.64 27.6557V28.7526H102.403C102.504 31.1357 103.794 32.5352 105.937 32.5352C107.766 32.5352 108.668 31.7409 108.919 30.5305H112.678C112.214 33.6322 109.758 35.3596 105.862 35.3596C101.489 35.3344 98.3564 32.6235 98.3564 28.0339ZM108.794 26.3065C108.668 24.1378 107.566 23.1544 105.686 23.1544C104.84 23.1503 104.025 23.4765 103.413 24.0643C102.801 24.6521 102.439 25.4558 102.403 26.3065H108.794Z" fill="#1B2559"/>
            <path d="M113.68 28.0338V27.8195C113.632 26.8319 113.79 25.8451 114.141 24.922C114.493 23.9988 115.032 23.1595 115.724 22.4573C116.416 21.7552 117.245 21.2057 118.16 20.8438C119.074 20.4819 120.053 20.3155 121.035 20.3551C124.343 20.3551 127.388 21.8051 127.751 25.9282H123.992C123.967 25.5743 123.872 25.2291 123.712 24.913C123.551 24.5969 123.33 24.3165 123.06 24.0883C122.79 23.8602 122.477 23.6889 122.14 23.5848C121.803 23.4806 121.448 23.4457 121.098 23.4821C119.055 23.4821 117.69 25.0203 117.69 27.769V27.9834C117.69 30.8708 118.943 32.346 121.185 32.346C121.567 32.3681 121.949 32.3136 122.31 32.1856C122.67 32.0576 123.002 31.8588 123.285 31.6006C123.568 31.3425 123.798 31.0302 123.96 30.6819C124.122 30.3337 124.214 29.9564 124.23 29.5721H127.801C127.588 32.9764 125.132 35.3343 120.985 35.3343C116.838 35.3343 113.68 32.7243 113.68 28.0338Z" fill="#1B2559"/>
            <path d="M128.716 31.06C128.716 27.7061 131.761 26.4452 136.121 26.4452H137.737V25.8779C137.737 24.1757 137.211 23.2426 135.419 23.2426C135.125 23.204 134.827 23.2269 134.542 23.3097C134.257 23.3926 133.992 23.5337 133.764 23.7242C133.536 23.9148 133.349 24.1506 133.216 24.417C133.082 24.6835 133.005 24.9747 132.989 25.2726H129.23C129.48 21.8683 132.149 20.3552 135.632 20.3552C139.116 20.3552 141.609 21.78 141.609 25.6761V35.0318H137.762V33.3044C137.28 33.9889 136.629 34.5357 135.873 34.8915C135.118 35.2473 134.284 35.3999 133.452 35.3344C130.946 35.3344 128.716 34.0735 128.716 31.06ZM137.737 30.0135V28.7526H136.234C133.941 28.7526 132.6 29.257 132.6 30.7826C132.6 31.8292 133.239 32.5226 134.68 32.5226C136.447 32.5731 137.788 31.6022 137.788 30.0135H137.737Z" fill="#1B2559"/>
            <path d="M144.39 20.6326H148.337V22.8265C148.768 22.047 149.401 21.4003 150.169 20.956C150.937 20.5117 151.812 20.2865 152.698 20.3047C153.543 20.2367 154.388 20.4454 155.106 20.8999C155.824 21.3543 156.377 22.0301 156.682 22.8265C157.208 22.0356 157.923 21.3903 158.762 20.9497C159.6 20.5091 160.535 20.2873 161.481 20.3047C164.125 20.3047 166.167 21.9817 166.167 25.7895V34.9813H162.245V26.2813C162.245 24.4404 161.431 23.6208 160.002 23.6208C159.622 23.6042 159.243 23.6703 158.891 23.8145C158.539 23.9588 158.222 24.1778 157.961 24.4567C157.701 24.7356 157.503 25.0677 157.382 25.4305C157.26 25.7932 157.218 26.1781 157.258 26.5587V35.0317H153.324V26.2813C153.324 24.4404 152.485 23.6208 151.094 23.6208C150.713 23.6023 150.332 23.667 149.978 23.8104C149.625 23.9538 149.306 24.1726 149.044 24.4517C148.782 24.7308 148.583 25.0636 148.461 25.4273C148.339 25.791 148.297 26.177 148.337 26.5587V35.0317H144.39V20.6326Z" fill="#1B2559"/>
            <path d="M168.874 20.6326H172.833V22.8895C173.305 22.1001 173.972 21.4471 174.769 20.9942C175.566 20.5412 176.466 20.3037 177.381 20.3048C180.877 20.3048 183.646 22.9148 183.646 27.6556V27.8826C183.646 32.6235 180.977 35.2839 177.381 35.2839C176.467 35.3217 175.559 35.1066 174.757 34.662C173.955 34.2175 173.29 33.5604 172.833 32.7622V39.9239H168.874V20.6326ZM179.587 27.6935C179.587 24.7809 178.171 23.3561 176.178 23.3561C174.186 23.3561 172.695 24.8061 172.695 27.6935V27.9078C172.695 30.7826 174.061 32.1822 176.216 32.1822C178.371 32.1822 179.587 30.7196 179.587 27.9583V27.6935Z" fill="#1B2559"/>
            <path fill-rule="evenodd" clip-rule="evenodd" d="M25.2333 8.5724C14.1151 8.5724 8.31686 18.0491 5.07042 27.3116C4.67798 28.4313 3.45784 29.0188 2.34517 28.6239C1.54933 28.3415 1.02403 27.6329 0.932985 26.8426C0.89674 26.5279 0.929326 26.2003 1.04108 25.8815C4.33513 16.4831 11.0666 4.27283 25.2333 4.27283C32.6382 4.27283 37.9384 9.20254 41.3663 15.125C44.8032 21.063 46.6356 28.4156 47.0485 34.3521C47.0782 34.7788 46.9807 35.2047 46.7685 35.5753C44.7833 39.0431 41.4807 41.303 37.7161 42.6871C33.9608 44.0678 29.6108 44.6318 25.2505 44.6333C21.5459 44.6915 17.8724 43.9454 14.4801 42.4458C11.0824 40.9439 8.04706 38.7215 5.58141 35.9306C5.05688 35.3368 4.9005 34.5004 5.17475 33.7554L5.17636 33.751L5.17942 33.7428L5.18987 33.7147L5.22769 33.6143C5.2603 33.5284 5.30759 33.4052 5.3685 33.2501C5.49025 32.94 5.66697 32.5009 5.89038 31.9755C6.33526 30.9294 6.97439 29.5195 7.74214 28.096C8.49979 26.6912 9.43147 25.181 10.4792 23.9911C11.4343 22.9064 12.9189 21.585 14.8192 21.572L14.8337 21.5719C16.1764 21.5719 17.2794 22.1906 18.0733 22.7854C18.8736 23.3849 19.6004 24.1467 20.1828 24.767C20.2497 24.8381 20.3146 24.9074 20.3778 24.9748C20.9202 25.5536 21.335 25.9962 21.7291 26.3276C21.7734 26.3648 21.8141 26.3977 21.8512 26.4266C21.9794 26.2948 22.1323 26.1221 22.3083 25.9025C22.9345 25.1213 23.6377 24.021 24.3183 22.843C24.9899 21.6805 25.6012 20.5095 26.0469 19.6237C26.2689 19.1824 26.4481 18.8153 26.5711 18.56C26.6326 18.4324 26.68 18.3329 26.7116 18.2661L26.7468 18.1913L26.7552 18.1735L26.757 18.1697C27.2578 17.0948 28.53 16.6313 29.5982 17.1352C30.6665 17.6391 31.1266 18.9192 30.6258 19.9942L30.6212 20.0041L30.6101 20.0278L30.569 20.1149C30.5335 20.19 30.4818 20.2985 30.4157 20.4357C30.2836 20.7099 30.0935 21.0994 29.8588 21.5659C29.3909 22.4958 28.7391 23.7456 28.0121 25.004C27.294 26.2469 26.4632 27.5674 25.6339 28.6019C25.2227 29.1149 24.7565 29.6281 24.2524 30.0316C23.8068 30.3883 23.0208 30.915 22.0132 30.915C20.6808 30.915 19.631 30.1664 18.9894 29.6268C18.3847 29.1183 17.7806 28.472 17.2731 27.9291C17.2061 27.8574 17.1408 27.7876 17.0774 27.7201C16.4758 27.0794 15.9841 26.5804 15.522 26.2342C15.117 25.9309 14.9103 25.881 14.8509 25.873C14.8509 25.873 14.8466 25.8746 14.8429 25.876C14.7776 25.8991 14.3852 26.0383 13.677 26.8426C12.9428 27.6764 12.1916 28.8597 11.4973 30.1469C10.8132 31.4154 10.2315 32.6958 9.81846 33.6671C9.76524 33.7922 9.71497 33.9119 9.6678 34.0253C11.548 35.9106 13.7615 37.4321 16.1985 38.5093C19.033 39.7623 22.103 40.3847 25.1985 40.334L25.2333 40.3337C29.2747 40.3337 33.1 39.8068 36.2499 38.6486C39.1477 37.5832 41.3583 36.0304 42.7324 33.9689C42.2667 28.6857 40.5944 22.3342 37.6743 17.2889C34.618 12.0086 30.4708 8.5724 25.2333 8.5724ZM21.5 26.7321C21.5 26.7321 21.5094 26.725 21.5273 26.7157C21.5089 26.7283 21.5 26.7321 21.5 26.7321Z" fill="#1B2559"/>
          </svg>