<svg xmlns="http://www.w3.org/2000/svg" width="155" height="45" viewBox="0 0 155 45" fill="none" class="">
            <path d="M32.4462 3.36365H6.77368C3.21473 3.36365 0.330353 6.2606 0.330353 9.83507V35.6195C0.330353 39.194 3.21473 42.0909 6.77368 42.0909H32.4462C36.0052 42.0909 38.8895 39.194 38.8895 35.6195V9.83507C38.8895 6.2606 36.0052 3.36365 32.4462 3.36365ZM31.8802 33.0068C31.8802 34.136 30.9691 35.051 29.8448 35.051H9.37505C8.25076 35.051 7.3397 34.136 7.3397 33.0068V12.4478C7.3397 11.3186 8.25076 10.4036 9.37505 10.4036H29.8448C30.9691 10.4036 31.8802 11.3186 31.8802 12.4478V33.0068ZM15.5199 27.9839C14.8724 27.9839 14.3529 27.4582 14.3529 26.8079V18.5999C14.3529 17.9496 14.8724 17.4201 15.5199 17.4201H23.7039C24.3475 17.4201 24.8708 17.9458 24.8708 18.5999V26.804C24.8708 27.4543 24.3475 27.98 23.7039 27.98H15.5199V27.9839ZM49.1128 27.4232H53.3231C53.5324 29.8178 55.1491 31.6868 58.4095 31.6868C61.321 31.6868 63.1121 30.2422 63.1121 28.0578C63.1121 26.0136 61.7087 25.0986 59.181 24.4989L55.9167 23.7942C52.3732 23.0193 49.706 20.7298 49.706 16.9918C49.706 12.8683 53.3541 10.0492 58.0916 10.0492C63.1082 10.0492 66.3377 12.6931 66.6168 16.6024H62.5461C62.0615 14.7723 60.5495 13.6821 58.0955 13.6821C55.498 13.6821 53.7107 15.0916 53.7107 16.8905C53.7107 18.6895 55.2537 19.7797 57.921 20.3794L61.1504 21.0841C64.6939 21.859 67.113 24.0083 67.113 27.7775C67.113 32.5707 63.5347 35.4248 58.4134 35.4248C52.6562 35.4209 49.4656 32.2864 49.1128 27.4232ZM82.1746 42.0909V35.0783L82.4499 32.0022H82.1746C81.2093 34.2139 79.1817 35.4248 76.4291 35.4248C71.9901 35.4248 68.687 31.7958 68.687 26.2317C68.687 20.6675 71.9901 17.0385 76.4291 17.0385C79.1468 17.0385 81.0736 18.3157 82.1746 20.3209H82.4499V17.3812H86.098V42.0909H82.1746ZM82.3103 26.2278C82.3103 22.6689 80.1431 20.5935 77.4914 20.5935C74.8396 20.5935 72.6724 22.6689 72.6724 26.2278C72.6724 29.7867 74.8396 31.862 77.4914 31.862C80.1431 31.862 82.3103 29.7906 82.3103 26.2278ZM89.0095 28.0617V17.3812H92.9329V27.7152C92.9329 30.5148 94.2743 31.862 96.5112 31.862C99.2638 31.862 101.055 29.8918 101.055 26.8157V17.3812H104.978V35.0744H101.33V31.4104H101.055C100.194 33.7622 98.3023 35.4209 95.3792 35.4209C91.1767 35.4209 89.0095 32.7264 89.0095 28.0617ZM107.366 30.1332C107.366 26.8157 109.673 24.8805 113.767 24.6391L118.617 24.3276V22.9453C118.617 21.2866 117.411 20.2859 115.279 20.2859C113.317 20.2859 112.147 21.2866 111.836 22.7039H107.913C108.328 19.11 111.286 17.0346 115.275 17.0346C119.784 17.0346 122.537 18.9698 122.537 22.7039V35.0744H118.888V31.7919H118.613C117.787 33.9685 116.066 35.4209 112.763 35.4209C109.603 35.4209 107.366 33.2794 107.366 30.1332ZM118.621 27.9566V27.0221L114.663 27.2986C112.53 27.4348 111.565 28.2331 111.565 29.8217C111.565 31.1689 112.666 32.1385 114.213 32.1385C117.004 32.1385 118.621 30.3435 118.621 27.9566ZM125.464 35.0783V17.3812H129.112V20.7687H129.387C129.903 18.4519 131.659 17.3812 134.272 17.3812H136.063V20.9401H133.826C131.279 20.9401 129.387 22.5988 129.387 25.7449V35.0744H125.464V35.0783ZM154.013 26.9559H140.626C140.831 30.2033 143.103 32.0372 145.615 32.0372C147.748 32.0372 149.089 31.1728 149.849 29.7205H153.737C152.671 33.3144 149.539 35.4209 145.581 35.4209C140.386 35.4209 136.737 31.5155 136.737 26.2278C136.737 20.9401 140.486 17.0346 145.615 17.0346C150.776 17.0346 154.148 20.5935 154.148 25.0168C154.152 25.8851 154.082 26.3329 154.013 26.9559ZM150.264 24.2264C150.128 21.7733 148.097 20.1146 145.619 20.1146C143.278 20.1146 141.32 21.602 140.835 24.2264H150.264Z" fill="#1B2559" class="st-current" data-label="path"/>
          </svg>